<?xml version="1.0" encoding="iso-8859-1"?>
<!-- Generator: Adobe Illustrator 19.0.0, SVG Export Plug-In . SVG Version: 6.00 Build 0)  -->
<svg version="1.1" id="Layer_1" xmlns="http://www.w3.org/2000/svg" xmlns:xlink="http://www.w3.org/1999/xlink" x="0px" y="0px"
	 viewBox="0 0 330 330" style="enable-background:new 0 0 330 330;" xml:space="preserve">
<g id="XMLID_169_">
	<path id="XMLID_197_" fill="currentColor" d="M271.904,8.578c-6.308-5.369-15.775-4.61-21.145,1.698s-4.609,15.775,1.698,21.146
		C282.671,57.143,300,94.629,300,134.268c0,8.284,6.716,15,15,15s15-6.716,15-15C330,85.821,308.825,40.009,271.904,8.578z"/>
	<path id="XMLID_221_" fill="currentColor" d="M77.543,31.423c6.308-5.37,7.068-14.837,1.698-21.146C73.87,3.969,64.404,3.209,58.096,8.58
		C21.175,40.011,0,85.822,0,134.268c0,8.284,6.716,15,15,15s15-6.716,15-15C30,94.63,47.329,57.144,77.543,31.423z"/>
	<path id="XMLID_222_" fill="currentColor" d="M275,265.001h-5V134.267c0-52.804-39.184-96.623-90-103.923V20.001c0-8.284-6.716-15-15-15
		s-15,6.716-15,15v10.343c-50.816,7.301-90,51.119-90,103.923v130.734h-5c-8.284,0-15,6.716-15,15s6.716,15,15,15h67.58
		C128.773,312.459,145.445,325,165,325s36.227-12.541,42.42-29.999H275c8.284,0,15-6.716,15-15S283.284,265.001,275,265.001z
		 M90,134.267c0-41.355,33.645-74.999,75-74.999s75,33.644,75,74.999v130.734H90V134.267z"/>
</g>
<g>
</g>
<g>
</g>
<g>
</g>
<g>
</g>
<g>
</g>
<g>
</g>
<g>
</g>
<g>
</g>
<g>
</g>
<g>
</g>
<g>
</g>
<g>
</g>
<g>
</g>
<g>
</g>
<g>
</g>
</svg>
