<svg id="Layer_1" viewBox="0 0 100 100" xmlns="http://www.w3.org/2000/svg"><path d="m36.666 16.667h26.667v73.333h-26.667z" fill="#f4f5f5"/><path d="m40.666 20.667h22.667v-4h-26.667v73.333h4z" fill="#e0e0e0"/><path d="m70 30h13.333v60h-13.333z" fill="#f4f5f5"/><path d="m16.666 30h13.333v60h-13.333z" fill="#f4f5f5"/><path d="m43.334 76.667h6.666v13.333h-6.666z" fill="#455a64"/><path d="m43.334 76.667h3.2v13.333h-3.2z" fill="#263238"/><path d="m16.666 36.667h6.668v6.667h-6.668z" fill="#2cabe1"/><path d="m16.666 49.999h6.668v6.668h-6.668z" fill="#2cabe1"/><path d="m16.666 63.334h6.668v6.666h-6.668z" fill="#2cabe1"/><path d="m16.666 76.667h6.668v6.667h-6.668z" fill="#2cabe1"/><path d="m16.666 36.667h3.2v6.667h-3.2z" fill="#0077bd"/><path d="m16.666 49.999h3.2v6.668h-3.2z" fill="#0077bd"/><path d="m16.666 63.334h3.2v6.666h-3.2z" fill="#0077bd"/><path d="m16.666 76.667h3.2v6.667h-3.2z" fill="#0077bd"/><path d="m76.667 36.667h6.666v6.667h-6.666z" fill="#2cabe1"/><path d="m76.667 49.999h6.666v6.668h-6.666z" fill="#2cabe1"/><path d="m76.667 63.334h6.666v6.666h-6.666z" fill="#2cabe1"/><path d="m76.667 76.667h6.666v6.667h-6.666z" fill="#2cabe1"/><path d="m80.133 36.667h3.2v6.667h-3.2z" fill="#0077bd"/><path d="m80.133 49.999h3.2v6.668h-3.2z" fill="#0077bd"/><path d="m80.133 63.334h3.2v6.666h-3.2z" fill="#0077bd"/><path d="m80.133 76.667h3.2v6.667h-3.2z" fill="#0077bd"/><g fill="#ffc00e"><path d="m56.667 76.667h6.666v6.667h-6.666z"/><path d="m56.667 63.334h6.666v6.666h-6.666z"/><path d="m56.667 49.999h6.666v6.668h-6.666z"/><path d="m56.667 36.667h6.666v6.667h-6.666z"/><path d="m56.667 23.334h6.666v6.666h-6.666z"/></g><path d="m60.133 76.667h3.2v6.667h-3.2z" fill="#f68e1e"/><path d="m60.133 63.334h3.2v6.666h-3.2z" fill="#f68e1e"/><path d="m60.133 49.999h3.2v6.668h-3.2z" fill="#f68e1e"/><path d="m60.133 36.667h3.2v6.667h-3.2z" fill="#f68e1e"/><path d="m60.133 23.334h3.2v6.666h-3.2z" fill="#f68e1e"/><path d="m36.666 23.334h13.334v6.666h-13.334z" fill="#2cabe1"/><path d="m36.666 36.667h13.334v6.667h-13.334z" fill="#2cabe1"/><path d="m36.666 49.999h13.334v6.668h-13.334z" fill="#2cabe1"/><path d="m36.666 63.334h13.334v6.666h-13.334z" fill="#2cabe1"/><path d="m36.666 23.334h4v6.666h-4z" fill="#0077bd"/><path d="m36.666 36.667h4v6.667h-4z" fill="#0077bd"/><path d="m36.666 49.999h4v6.668h-4z" fill="#0077bd"/><path d="m36.666 63.334h4v6.666h-4z" fill="#0077bd"/><path d="m36.666 90h-6.666v-60h-13.334v60h-6.666v-66.666h20v-13.334h40v13.334h20v66.666h-6.667v-60h-13.333v60h-6.667v-73.333h-26.667z" fill="#bdbcbc"/><path d="m16.666 30v4h9.334v56h4v-60z" fill="#e0e0e0"/><path d="m26 23.334h4v6.666h-4z" fill="#9d9d9d"/><path d="m74 34h9.333v-4h-13.333v60h4z" fill="#e0e0e0"/><path d="m70 23.334h4v6.666h-4z" fill="#9d9d9d"/></svg>