<svg id="Layer_2" enable-background="new 0 0 32 32" viewBox="0 0 32 32" xmlns="http://www.w3.org/2000/svg"><g><path d="m16.68229.24688c-.39583-.32917-.96875-.32917-1.36458 0l-14.93333 12.43749c-.34479.28646-.47396.75938-.32083 1.18229s.55417.70417 1.00313.70417h3.11458v16.3625c-.00001.58959.47707 1.06667 1.06666 1.06667h21.50417c.58958 0 1.06667-.47708 1.06667-1.06667v-16.3625h3.11458c.44896 0 .85-.28125 1.00313-.70417s.02396-.89583-.32083-1.18229zm10.06979 12.19062c-.58958 0-1.06667.47708-1.06667 1.06667v16.3625h-19.37083v-16.3625c0-.58958-.47708-1.06667-1.06667-1.06667h-1.2302l11.98229-9.98229 11.98229 9.98229z"/><path d="m14.93333 14.26667v4.51458h-4.51458c-.58958 0-1.06667.47708-1.06667 1.06667 0 .58958.47708 1.06667 1.06667 1.06667h4.51458v4.51354c0 .58958.47708 1.06667 1.06667 1.06667.58958 0 1.06667-.47708 1.06667-1.06667v-4.51354h4.51458c.58958 0 1.06667-.47708 1.06667-1.06667 0-.58958-.47708-1.06667-1.06667-1.06667h-4.51458v-4.51458c0-.58959-.47709-1.06667-1.06667-1.06667s-1.06667.47708-1.06667 1.06667z"/></g></svg>