<?xml version="1.0" encoding="utf-8"?>
<!-- Generator: Adobe Illustrator 24.1.1, SVG Export Plug-In . SVG Version: 6.00 Build 0)  -->
<svg version="1.1" id="Layer_1" xmlns="http://www.w3.org/2000/svg" xmlns:xlink="http://www.w3.org/1999/xlink" x="0px" y="0px"
	 viewBox="0 0 512 512" style="enable-background:new 0 0 512 512;" xml:space="preserve">
<g id="XMLID_1_">
	<path id="XMLID_5_" fill="currentColor" d="M501.9,453.7L371.9,323c23.6-33.1,37.8-74,37.8-118.2C409.7,91.4,317.6,0,204.9,0
		S0.1,92.2,0.1,204.8s92.2,204.8,204.8,204.8c44.1,0,85.1-14.2,118.2-37.8l130.8,130c6.3,7.1,15.8,10.2,23.6,10.2
		s18.1-3.2,23.6-10.2C515.3,488.4,515.3,467.1,501.9,453.7L501.9,453.7z M204.9,365.5c-88.2,0-160.7-71.7-160.7-160.7
		S115.9,44.1,204.9,44.1s160.7,71.7,160.7,160.7S293.2,365.5,204.9,365.5z"/>
</g>
</svg>
